<svg width="384" height="494" viewBox="0 0 384 494" fill="none" xmlns="http://www.w3.org/2000/svg">
<path fill-rule="evenodd" clip-rule="evenodd" d="M327.968 215.942C324.481 206.784 327.101 195.191 319.912 187.613C317.786 186.382 316.658 187.067 315.783 189.215C315.255 192.042 314.017 201.775 318.469 201.77C319.029 207.848 318.679 213.971 317.308 219.936C314.022 219.434 311.627 221.044 309.23 222.241C307.443 223.133 305.655 223.797 303.497 223.184C294.587 221.687 292.047 230.607 291.939 237.887C291.808 241.44 291.458 249.721 289.817 253.168C282.388 238.5 266.785 231.822 251.918 228.525C249.588 227.911 247.599 227.071 246.104 225.636C233.578 220.921 239.596 205.474 233.833 196.596C224.813 186.042 213.981 183.005 200.334 184.814C188.394 186.073 180.277 197.635 181.014 208.549C181.234 210.776 179.832 213.118 179.007 215.41C170.766 224.812 157.941 229.018 146.911 234.699C110.121 251.84 97.3713 264.94 83.0744 301.415C76.3862 315.138 68.382 328.457 65.7237 343.571C62.6 361.382 62.5902 379.614 63.6776 397.599C61.6474 397.832 63.8568 411.658 65.6375 416.447C66.2477 418.089 67.7096 419.272 69.5313 419.245C73.1955 420.943 81.7987 427.785 85.6312 427.558C98.0142 426.831 110.051 427.955 121.981 427.374C134.888 426.745 147.671 424.449 160.633 424.747C183.237 425.266 167.054 426.545 190.44 427.558C205.204 428.207 259.064 420.52 273.786 421.775C285.76 424.176 291.223 420.128 289.396 408.203C288.721 403.631 286.564 393.466 293.659 393.034C297.015 393.405 299.793 396.602 302.307 398.47C324.515 414.232 347.203 402.882 348.99 376.971C352.356 355.238 357.075 350.104 346.816 328.401C314.359 247.61 363.26 258.586 330.243 220.745C327.665 222.885 328.321 217.173 327.968 215.942Z" fill="#0033CC"/>
<path fill-rule="evenodd" clip-rule="evenodd" d="M315.634 187.009C317.405 185.349 320.221 185.762 321.948 187.237C323.706 188.736 324.764 191.091 325.667 193.122C329.716 202.251 328.773 212.247 330.822 221.798C334.57 223.728 337.954 226.248 340.351 229.638C343.991 234.788 345.718 240.785 343.893 246.888C342.95 250.046 341.348 252.972 340.205 256.062C338.985 259.352 338.238 262.771 337.88 266.245C337.528 269.655 337.481 273.083 337.582 276.505C337.636 278.278 337.734 280.047 337.832 281.816C337.92 283.402 338.215 285.056 337.817 286.61L337.768 286.788C337.923 286.766 338.076 286.737 338.228 286.705C339.533 286.427 340.682 285.995 342.044 286.166C343.105 286.298 343.656 287.143 343.207 288.096C343.011 288.512 342.751 288.86 342.436 289.157C345.174 308.459 349.957 327.452 353.104 346.693C354.531 355.423 355.4 364.179 354.909 373.017L354.858 373.894C354.358 382.009 353.131 390.952 348.805 398.049C346.783 401.372 344.005 404.32 340.638 406.444C339.096 407.417 337.444 408.177 335.649 408.558C326.346 412.089 316.509 411.223 307.738 406.554C303.793 404.456 299.858 402.01 296.637 398.974C295.072 397.498 293.561 395.62 292.634 393.567C292.638 394.028 292.551 394.499 292.648 394.953L292.843 395.851C294.304 402.521 299.872 427.173 299.946 429.243C299.986 430.359 290.127 430.332 289.057 430.366L289.028 430.367C273.06 431.002 257.083 430.663 241.125 430.034L239.865 429.984C224.388 429.359 207.547 428.52 192.054 428.089L192.086 427.842C192.271 426.515 193.174 420.616 193.274 420.164L193.278 420.149C193.717 418.462 194.564 413.214 194.118 411.474C192.97 406.99 187.795 408.014 184.153 408.489L183.386 408.585C182.797 408.663 181.363 408.863 181.376 408.877C180.989 408.493 181.91 407.402 182.136 407.111L182.318 406.871C183.296 405.566 184.181 404.21 184.085 402.528C183.849 398.42 177.691 398.652 174.665 398.936C174.452 398.956 174.365 399.274 174.611 399.322L175.208 399.44C177.127 399.833 181.392 400.835 181.295 402.349C181.24 403.209 180.279 403.843 179.692 404.385C179.045 404.983 178.402 405.627 177.924 406.36C177.005 407.773 176.796 409.678 177.705 411.149C178.755 412.844 180.616 413.043 182.48 412.888L182.585 412.879C182.996 412.842 183.406 412.805 183.816 412.767L186.277 412.537C186.886 412.481 188.845 411.992 189.417 412.329C190.227 412.807 189.252 414.926 189.069 415.624L189.06 415.674C188.903 416.685 188.808 427.275 188.793 427.975C176.719 427.707 164.643 425.148 152.569 425.749C142.977 426.227 133.411 427.053 123.837 427.77L123.596 425.81C120.942 404.476 116.782 376.326 118.778 355.224C118.935 353.572 116.229 353.582 116.074 355.224C114.01 377.044 118.529 406.356 121.158 427.966C117.082 428.261 113.005 428.529 108.923 428.734L107.882 428.784C93.9916 429.446 79.6547 429.486 66.061 426.449C65.6418 426.355 65.4999 425.956 65.5877 425.624C65.4525 425.698 65.2497 425.656 65.1922 425.475C63.6087 420.499 62.8043 407.829 62.0867 402.346L62.0384 401.987C61.3015 396.66 60.879 391.273 60.5748 385.914C59.9596 375.193 60.0339 364.459 60.8655 353.75C63.5122 319.596 74.052 285.09 96.1725 257.641C101.52 251.006 107.608 244.935 114.913 240.24C122.079 235.632 130.117 232.387 138.274 229.751C143.665 228.008 149.142 226.516 154.618 225.027C154.825 224.928 155.032 224.831 155.241 224.735L155.554 224.592C157.501 223.712 159.418 222.749 161.412 221.966L161.853 221.795C164.743 220.69 168.11 219.712 171.238 219.745C176.305 217.312 180.561 213.636 180.149 207.738C179.98 205.315 183.969 205.318 184.111 207.738C184.482 214.177 180.322 218.743 175.018 221.808L175.043 221.832L175.068 221.859C175.896 222.755 176.782 223.586 177.739 224.36C183.465 229.007 190.709 232.864 197.949 235.403C206.444 238.384 214.932 239.276 223.717 236.866C228.311 235.606 232.648 233.663 236.633 231.149C237.85 230.383 239.016 229.561 240.135 228.681C239.077 227.302 238.232 225.816 237.522 224.241C236.096 221.07 234.916 216.774 236.373 213.426C236.731 212.601 238.155 212.092 238.651 213.142C240.02 216.017 240.592 219.123 242.187 221.934C242.796 223.003 243.495 224.018 244.28 224.975C244.28 225.027 250.269 226.003 250.269 226.003C257.51 226 264.328 228.652 270.734 231.965C274.52 233.924 278.241 236.006 281.952 238.092L289.204 242.17C289.738 242.47 290.336 242.76 290.934 243.07C290.234 239.776 289.893 236.418 290.123 233.089C290.471 228.069 292.52 222.578 297.945 220.789C300.511 219.942 303.478 220.203 305.97 221.144C307.119 221.579 308.37 222.156 309.438 222.926C309.955 220.709 312.135 219.046 314.326 218.312C315.036 218.073 315.762 217.921 316.499 217.847C316.478 217.491 316.475 217.132 316.481 216.761L316.486 216.481C316.52 214.837 316.506 213.194 316.469 211.554C316.401 208.444 316.246 205.399 315.915 202.299C315.638 199.733 315.157 197.196 314.801 194.64L314.653 193.541C314.352 191.377 313.847 188.681 315.634 187.009ZM97.8272 396.85L97.2228 396.508C95.2433 395.394 93.2043 394.367 90.8063 394.883C88.5219 395.374 86.9014 397.142 86.0499 399.134C85.6477 400.076 85.4378 401.025 85.2826 402.028C85.1954 402.589 85.1366 403.155 85.0331 403.714L84.9985 403.888C84.9517 404.11 84.88 404.42 84.8148 404.689C84.1915 404.427 83.5637 404.013 83.0537 403.767L82.6423 403.569C81.6768 403.111 80.6724 402.675 79.6203 402.463C77.3413 402.004 74.8132 402.668 73.5104 404.614C72.3962 406.278 72.419 408.24 72.8452 410.106L72.8756 410.236C73.0605 411.01 74.0161 414.109 75.4061 413.657C76.7579 413.217 76.9384 411.504 77.0408 410.363L77.0484 410.254C77.0945 409.393 76.9155 407.585 77.9379 407.258C79.2153 406.85 81.6731 408.714 82.7856 409.202C84.7749 410.072 86.9602 410.329 88.5791 408.635C90.0305 407.116 90.1529 404.892 90.5286 402.966L90.6256 402.481C90.8249 401.502 91.2104 399.938 92.3467 399.978C93.2753 400.01 94.2948 400.928 95.0601 401.363C95.9048 401.844 96.782 402.244 97.6987 402.586C99.8381 403.383 102.217 403.638 104.493 403.402C105.811 403.266 106.67 402.666 107.136 401.484C107.294 401.137 107.414 400.779 107.497 400.409C108.236 397.762 104.199 395.873 102.71 398.241C100.993 398.179 99.3939 397.738 97.8272 396.85ZM346.31 379.152C345.079 378.314 343.407 378.495 342.306 379.438L342.241 379.496C341.936 379.777 341.248 380.508 340.803 381.151L340.663 381.047C340.641 381.031 340.619 381.014 340.599 380.998L340.538 380.95C339.628 380.217 338.677 379.545 337.506 379.246C334.455 378.464 331.682 380.412 330.35 382.908C329.719 384.093 329.448 385.316 329.133 386.593L329.106 386.71C328.979 387.305 328.814 388.512 328.267 388.807C328.066 388.915 327.609 388.701 327.158 388.453C326.128 387.886 325.203 387.164 324.194 386.567C321.826 385.166 319.135 384.587 316.475 385.597C313.842 386.596 311.956 388.955 311.912 391.703C311.879 393.729 313.302 397.265 315.98 397.018C316.517 396.968 317.207 396.653 317.294 396.064C317.525 394.5 316.231 392.578 317.715 391.286C319.15 390.037 320.636 391.088 321.935 391.954L322.866 392.577C324.378 393.578 325.935 394.494 327.849 394.604C330.271 394.741 332.506 393.467 333.725 391.501C334.827 389.725 334.843 387.716 335.704 385.892C335.892 385.493 336.378 385.126 336.216 384.942C336.869 385.267 337.711 386.2 338.118 386.462C340.142 387.764 342.849 387.755 344.624 386.028C345.331 385.341 345.782 384.493 346.305 383.684C346.495 383.391 346.731 383.12 346.904 382.819C346.967 382.709 347.071 382.298 347.156 381.931L347.287 381.349L347.301 381.254C347.413 380.373 347.087 379.68 346.31 379.152ZM268.322 371.459C265.996 370.295 263.128 370.738 261.033 372.148C258.683 373.73 257.53 376.16 256.746 378.729C256.175 380.599 255.902 383.177 254.262 384.531C252.353 386.107 249.154 384.434 247.139 383.813C244.702 383.062 241.773 382.754 239.394 383.865C237.064 384.955 235.94 387.177 235.7 389.557C235.475 391.779 235.809 394.704 237.138 396.563C237.269 396.746 237.519 396.699 237.602 396.505C238.476 394.454 238.307 392.108 239.017 389.985C239.774 387.719 241.55 387.24 243.804 387.85C246.155 388.485 248.308 389.675 250.725 390.098C253.303 390.55 255.856 390.084 257.888 388.46C259.598 387.094 260.633 385.104 261.333 383.121C262.015 381.188 262.126 378.6 263.578 376.995C263.944 376.59 264.583 376.101 265.176 376.049C266.057 375.972 266.375 376.596 267.087 377.074C268.964 378.337 271.96 378.362 273.109 376.141C273.486 375.414 273.672 374.381 273.109 373.67C272.123 372.422 271.312 372.433 270.01 372.702C269.969 372.669 269.923 372.626 269.871 372.568L269.831 372.522C269.486 372.106 268.817 371.707 268.322 371.459ZM176.196 358.351C176.119 356.682 174.011 355.079 172.348 356.246C172.079 356.432 171.815 356.623 171.557 356.82L171.45 356.93C171.141 356.929 170.852 356.851 170.547 356.758L170.012 356.595C168.609 356.171 167.26 355.829 165.762 356.142C163.184 356.681 161.549 358.801 160.709 361.051C159.927 363.148 160.184 365.287 159.816 367.437C159.468 369.476 158.37 370.272 156.306 369.835L156.201 369.812C152.097 368.875 147.421 366.255 143.823 369.847C139.936 373.727 142.478 379.89 146.733 382.383C146.919 382.492 147.125 382.313 147.082 382.127C146.517 379.62 144.868 377.23 145.421 374.57C145.804 372.726 147.148 371.853 149.065 372.147C153.1 372.766 156.873 375.83 161.01 373.606C163.077 372.494 164.216 370.407 164.73 368.268C165.194 366.344 165.063 364.173 165.951 362.358C166.924 360.371 168.561 361.812 170.325 362.083C172.822 362.466 176.329 361.218 176.196 358.351ZM311.535 298.983C311.543 297.324 308.839 297.322 308.831 298.983C308.731 320 298.417 339.427 296.564 360.235C296.418 361.888 299.123 361.879 299.269 360.235C301.122 339.421 311.435 320.034 311.535 298.983ZM88.2333 333.386C86.8095 331.849 84.7239 332.326 83.0297 333.096C80.485 334.253 78.0498 335.553 75.7154 337.056C75.1411 337.425 75.5031 338.229 76.1792 338.105C77.8913 337.791 79.5578 337.44 81.2188 336.931C82.4672 336.548 83.7666 335.993 85.0683 335.796C84.9868 336.082 84.8878 336.361 84.7712 336.636C84.5575 337.199 84.3094 337.751 84.0988 338.316C83.6799 339.441 83.3024 340.583 82.9364 341.725L82.7542 342.296C81.9933 344.691 81.254 348.177 84.7654 348.914C86.0683 349.187 87.3595 348.646 88.5715 348.221L88.8211 348.135L93.2418 346.641C93.7685 346.463 94.744 346.339 95.1808 346.027L95.1109 346.347C95.0204 346.772 94.9317 347.188 94.74 347.611L94.633 347.845C93.5349 350.218 92.1504 352.593 93.4311 355.216C94.5284 357.464 97.122 358.53 99.6214 357.892C101.997 357.286 103.716 354.736 102.486 352.518C102.028 351.691 100.687 351.287 99.8349 351.803L99.6061 351.948C99.3378 352.116 98.8758 352.402 98.8646 352.455C98.801 352.471 98.7344 352.487 98.6668 352.502C98.8102 352.1 98.9068 351.482 99.0326 351.208L99.4952 350.207C100.356 348.325 101.102 346.41 100.445 344.299C98.5648 338.255 92.1879 341.692 87.4839 343.416C87.5525 343.161 87.6204 342.909 87.6779 342.662C87.8807 341.787 88.1025 340.916 88.322 340.045L88.772 338.248C89.177 336.591 89.4923 334.746 88.2333 333.386ZM328.905 326.64C328.909 326.497 328.725 326.388 328.595 326.471C325.588 328.398 323.576 332.422 324.706 335.851C325.255 337.515 326.421 338.976 328.06 339.784C330.096 340.788 332.345 340.406 334.485 339.976L335.394 339.791C336.034 339.662 336.666 339.568 337.318 339.74C337.542 339.799 337.802 339.984 338.014 340.024C337.927 340.167 337.833 340.414 337.786 340.506L337.631 340.803C337.475 341.104 337.324 341.417 337.228 341.734C336.908 342.796 336.988 343.936 337.505 344.927C338.47 346.773 340.494 347.813 342.6 347.99C343.855 348.096 347.017 347.048 347.765 348.318C349.249 350.837 353.475 349.143 352.653 346.353C352.098 344.467 350.522 343.248 348.57 342.738C347.53 342.466 346.454 342.503 345.396 342.614C344.982 342.658 344.569 342.719 344.154 342.761L343.842 342.788C343.924 342.782 342.983 342.761 342.605 342.737L342.685 342.53C342.697 342.501 342.708 342.475 342.718 342.456C343.138 341.598 343.45 340.744 343.425 339.786C343.378 338.058 342.205 336.551 340.664 335.72C339.244 334.952 337.552 334.646 335.937 334.817C334.161 335.006 331.638 336.346 329.892 335.64C328.577 335.107 328.13 333.251 328.11 332.034C328.08 330.202 328.852 328.466 328.905 326.64ZM206.411 314.623C201.573 312.553 197.418 316.088 194.578 319.471C194.432 319.646 194.616 319.94 194.847 319.804L195.224 319.58C197.542 318.194 200.113 316.556 202.986 317.028C205.587 317.456 206.231 319.078 205.713 321.289L205.561 321.911C205.011 324.188 204.589 326.544 205.959 328.661C207.253 330.66 209.777 331.534 212.141 331.587C214.868 331.649 217.221 330.44 219.714 329.597L219.911 329.531C220.97 329.183 224.833 328.272 224.886 330.346C224.911 331.294 223.846 332.408 223.437 333.26C222.901 334.375 222.545 335.546 222.551 336.784C222.567 339.871 225.269 342.379 228.467 340.881C229.71 340.298 230.03 338.628 229.382 337.554C228.469 336.04 228.099 336.119 228.739 334.53L228.923 334.083C229.711 332.168 230.337 330.196 229.453 328.186C227.686 324.172 222.39 323.686 218.605 325.015L218.467 325.065C216.112 325.935 209.057 329.42 209.544 324.492C209.735 322.55 210.353 320.688 209.921 318.725C209.519 316.903 208.185 315.382 206.411 314.623ZM183.096 298.137C182.213 296.655 179.248 297.185 179.494 299.067L179.572 299.653C179.673 300.455 179.695 301.208 179.114 301.921C178.409 302.787 177.202 303.049 176.106 302.916C173.786 302.636 172.307 300.586 169.755 301.065C167.682 301.453 166.252 303.07 165.423 304.832C164.546 306.699 164.564 308.722 163.911 310.644C163.159 312.854 161.554 312.752 159.55 311.979L159.119 311.81C157.202 311.05 155.278 310.206 153.142 310.569C149.595 311.173 146.54 316.373 149.864 318.884C150.464 319.337 151.512 319.1 151.487 318.243L151.483 318.081C151.467 316.521 151.879 314.508 153.755 314.14C155.743 313.75 157.99 315.48 159.837 315.978C164.62 317.268 167.344 313.836 168.156 309.778L168.186 309.622C168.445 308.201 168.65 305.573 170.209 304.908C171.04 304.553 171.927 305.426 172.621 305.777C173.701 306.323 174.859 306.67 176.08 306.759C180.596 307.087 185.729 302.558 183.096 298.137ZM296.124 292.531C294.636 291.917 292.416 292.259 292.053 294.11L291.832 295.275C291.4 297.526 290.711 300.34 288.391 301.151C286.939 301.657 285.272 300.769 283.971 300.227C282.407 299.576 280.883 299.018 279.171 298.863C275.697 298.549 273.109 300.465 271.881 303.459L271.773 303.726C270.782 306.242 269.443 311.054 271.613 313.095C271.93 313.393 272.568 313.538 272.957 313.26C274.239 312.343 274.563 310.836 275.003 309.423L275.041 309.302C275.509 307.834 275.892 306.218 276.735 304.895C278.303 302.438 282.393 305.244 284.361 305.892C287.592 306.956 290.943 306.334 293.412 304.058C294.972 302.62 295.894 300.799 296.528 298.873C296.933 299.072 297.353 299.245 297.806 299.361C299.53 299.806 301.575 299.572 302.888 298.327C305.351 295.99 304.015 291.799 300.259 292.476C299.519 292.61 299.034 293.283 298.946 293.971L298.895 294.08C297.95 293.782 296.917 292.858 296.124 292.531ZM122.068 271.655C118.559 268.213 112.469 270.079 110.068 273.73C109.57 274.487 110.393 275.446 111.267 275.216C113.356 274.668 116.304 272.507 118.512 273.882C120.149 274.902 119.259 277.566 119.109 279.056L119.088 279.278C118.898 281.307 118.855 284.083 120.513 285.601C121.467 286.475 122.93 286.357 124.188 286.232L124.588 286.193C126.071 286.051 127.545 285.801 128.966 285.366C130.272 284.967 131.509 284.424 132.737 283.849L133.043 283.704C133.587 283.447 135.398 282.429 135.941 283.069C136.223 283.403 135.522 284.865 135.377 285.191C134.826 286.418 134.127 287.572 133.622 288.821C132.733 291.02 132.658 293.501 133.907 295.6C135.117 297.634 137.74 299.282 140.063 297.719C141.394 296.825 141.39 295.197 140.063 294.302C139.361 293.829 138.654 293.516 138.364 292.722C137.985 291.685 138.472 290.586 138.944 289.627L139.508 288.486C140.759 285.938 142.009 283.008 140.261 280.404C138.457 277.714 134.79 277.672 132.015 278.792C130.432 279.431 128.987 280.289 127.337 280.783C126.196 281.126 125.05 281.355 123.881 281.48C123.62 280.139 123.989 278.638 123.993 277.305C123.999 275.281 123.603 273.16 122.068 271.655ZM303.036 223.777C297.113 222.948 294.247 227.998 293.838 232.861C293.469 237.275 294.22 241.703 295.393 245.996C295.832 247.587 296.326 249.16 296.843 250.706C297.674 253.191 298.577 255.672 299.676 258.063C300.01 258.785 300.348 259.51 300.727 260.206C302.024 261.22 303.133 262.585 304.142 263.897L304.805 264.764L304.983 264.998C306.696 267.234 308.16 269.555 309.357 272.078C310.496 274.481 311.345 276.986 312.004 279.544L312.166 280.182C312.673 282.15 313.421 284.499 312.517 286.331C314.292 286.853 316.056 287.326 317.943 287.578C320.545 287.926 323.253 287.948 325.88 287.858C328.417 287.769 330.952 287.581 333.479 287.324L335.3 287.133C335.488 287.112 335.677 287.091 335.865 287.068C335.794 286.985 335.733 286.891 335.689 286.788C335.04 285.306 335.124 283.587 335.052 281.993L335.044 281.816C334.949 280.047 334.891 278.278 334.868 276.505C334.824 273.18 334.918 269.845 335.3 266.535C335.631 263.638 336.149 260.741 336.957 257.928C337.771 255.076 339.015 252.398 340.165 249.659C341.3 246.952 342.237 244.172 342.135 241.22C342.071 239.344 341.638 237.52 340.905 235.796C340.871 235.822 340.828 235.841 340.776 235.838C338.474 235.758 336.294 235.123 334.07 234.588C331.711 234.018 329.294 233.55 326.88 233.273L326.367 233.216C324.356 233 322.164 232.896 320.305 233.718C318.294 234.611 317.027 236.596 316.263 238.5L316.177 238.719C314.82 242.33 315.131 247.148 319.329 248.857C320.63 249.388 323.601 249.714 324.271 248.032C324.571 247.265 323.953 246.131 323.72 245.406C323.446 244.542 323.267 243.691 323.287 242.789C323.303 241.998 323.937 241.401 324.744 241.337L324.818 241.332C326.285 241.271 329.311 239.66 329.605 241.98C329.662 242.431 329.3 242.905 328.918 243.124C328.148 243.559 327.343 243.849 326.505 244.026C326.62 244.51 326.782 244.983 326.941 245.454C327.036 245.409 327.14 245.38 327.252 245.37C328.493 245.273 329.72 245.461 330.96 245.473L331.638 245.478C332.601 245.487 333.44 245.536 334.374 246.011C335.236 246.45 335.084 247.548 334.374 248.019C332.512 249.25 329.358 248.528 327.418 247.278C327.502 247.913 327.462 248.56 327.178 249.24C326.339 251.258 323.936 252.263 321.786 252.35C319.876 252.427 318.051 251.854 316.526 250.848C316.215 251.908 315.715 252.927 315.499 254.026C315.215 255.469 315.553 257.158 315.026 258.514C314.498 259.881 312.46 260.796 311.28 259.455C309.553 257.496 310.09 254.393 311.608 252.408C312.416 251.357 313.883 250.152 315.377 249.962C314.339 249.031 313.508 247.88 312.984 246.611C312.947 246.627 312.903 246.63 312.855 246.617C307.998 245.351 305.354 241.155 305.192 236.75C304.834 236.995 304.462 237.214 304.073 237.411C303.144 237.888 301.951 237.469 301.663 236.479C301.4 235.558 302.167 234.421 303.245 234.498C303.86 234.546 304.479 234.549 305.091 234.452C305.175 234.44 305.256 234.424 305.341 234.407C305.395 234.069 305.466 233.731 305.554 233.396C303.718 233.595 301.798 233.309 300.024 232.935C298.496 232.616 298.851 230.299 300.389 230.354L300.636 230.364C302.654 230.456 305.633 230.767 307.362 229.548C307.667 229.129 308.005 228.733 308.37 228.359C308.417 228.265 308.458 228.166 308.495 228.062C309.424 225.51 305.02 224.054 303.036 223.777ZM249.873 259.681C247.568 259.093 245.141 259.894 243.556 261.553C242.223 262.948 241.533 264.661 240.916 266.412L240.564 267.42C240.052 268.846 239.463 269.978 237.631 269.434C235.283 268.737 233.248 267.523 230.695 267.618C228.374 267.706 226.102 268.657 224.487 270.253C222.834 271.884 222.045 274.157 222.396 276.397L222.419 276.534C222.601 277.566 224.184 281.248 225.862 279.553C226.611 278.797 226.463 277.96 226.641 277C226.81 276.084 227.172 275.187 227.765 274.445C228.815 273.129 230.505 272.617 232.157 273.082C234.336 273.696 236.26 274.961 238.607 274.991C241.077 275.023 243.173 273.802 244.535 271.886C245.635 270.339 246.027 268.528 246.801 266.846L246.875 266.685C247.525 265.301 247.968 264.801 249.456 265.463L249.976 265.701C252.203 266.71 254.709 267.634 257.013 266.211C259.153 264.889 260.065 262.233 258.265 260.3C257.272 259.232 254.973 259.414 254.328 260.783C254.215 261.019 254.109 261.258 254.006 261.497C253.809 261.44 253.617 261.37 253.435 261.273C252.228 260.754 251.179 260.014 249.873 259.681ZM182.565 244.045C179.935 242.694 177.74 245.352 178.16 247.751L178.18 247.857C178.196 247.929 178.231 248.087 178.276 248.268C178.141 248.253 178.008 248.23 177.876 248.198L177.265 248.127C176.304 248.02 175.373 247.965 174.412 248.259C172.143 248.953 171.027 251.055 170.972 253.21C170.918 255.358 172.083 257.09 172.426 259.141C172.776 261.239 170.498 260.64 169.011 260.487L168.953 260.481C166.884 260.281 164.709 260.278 162.99 261.563C161.214 262.891 160.428 265.184 160.678 267.284C160.905 269.181 162.15 272.1 164.405 272.4C164.628 272.43 164.881 272.383 164.996 272.171C165.908 270.48 164.639 268.614 164.782 266.83C164.94 264.868 166.252 264.542 168.061 264.669C169.816 264.792 171.567 265.147 173.301 264.648C175.182 264.106 176.547 262.568 176.933 260.753C177.358 258.753 176.576 256.892 176.069 254.991C175.9 254.359 175.817 253.724 175.933 253.079C175.958 252.939 176.085 252.81 176.131 252.755C176.42 252.704 176.852 252.836 177.099 252.861L177.45 252.894C179.354 253.058 181.189 252.948 182.551 251.447C183.248 250.679 183.506 249.739 183.436 248.747L183.401 248.347C183.364 247.962 183.293 247.453 183.083 247.241L183.08 247.231C183.15 247.141 183.217 247.048 183.279 246.952L183.338 246.855C183.921 245.928 183.583 244.568 182.565 244.045ZM317.308 220.525C314.688 220.525 312.213 221.34 310.232 223.561C310.939 224.202 311.503 224.946 311.815 225.82C312.784 225.314 313.812 224.918 314.863 224.637C318.071 223.783 322.459 223.796 325.156 225.894C326.569 226.989 325.018 228.955 323.496 228.617C322.134 228.314 320.951 227.753 319.521 227.689C318.281 227.631 317.064 227.785 315.874 228.127C314.059 228.649 312.409 229.638 311.196 231.001C310.79 231.459 310.435 231.955 310.138 232.49C307.873 236.589 309.58 242.467 312.707 245.841C311.48 241.954 312.703 237.372 315.147 234.153C318.09 230.277 322.49 229.838 327.126 230.443L327.279 230.463C331.765 231.066 337.318 232.119 340.672 235.261C340.337 234.536 339.952 233.834 339.519 233.154C336.977 229.164 332.762 226.052 328.388 223.831C327.654 223.454 326.914 223.106 326.177 222.784C323.375 221.556 320.251 220.525 317.308 220.525ZM318.74 190.079L318.73 190.125C318.728 190.133 318.726 190.142 318.724 190.15C318.569 191.461 318.934 192.965 319.121 194.287L319.146 194.475C319.538 197.485 320.055 200.498 320.224 203.53C320.389 206.446 320.326 209.471 319.958 212.374L319.903 212.788C319.687 214.37 319.558 216.226 318.998 217.85C321.154 218.047 323.311 218.708 325.271 219.41C325.974 219.665 326.674 219.932 327.37 220.216C326.498 215.798 326.032 211.315 325.085 206.91L324.899 206.034C323.87 201.161 322.904 196.256 320.245 191.897C319.89 191.317 319.508 190.83 319.075 190.312C318.98 190.193 318.869 190.115 318.74 190.079Z" fill="white"/>
<path fill-rule="evenodd" clip-rule="evenodd" d="M260.113 136.553C259.31 126.646 260.555 116.262 256.548 106.845C249.561 91.2214 229.971 86.012 214.783 80.0637C208.698 78.3498 188.224 78.1102 181.1 75.8418C164.976 70.7079 161.123 64.5909 148.311 74.3661C146.149 76.0359 144.796 77.8508 143.809 80.3305L143.849 80.3411C143.567 81.3749 143.869 82.4064 144.505 83.1943C138.949 88.6073 136.625 96.7227 139.475 103.928C148.777 122.679 148.339 132.818 145.342 152.977C141.428 171.796 150.372 178.67 165.183 188.91C164.58 190.024 164.455 191.506 165.241 192.489C182.368 215.433 214.661 226.387 242.329 214.742C253.56 209.976 258.574 198.574 261.436 188.286C264.769 176.766 265.793 164.627 263.079 152.892C261.985 147.465 260.559 142.077 260.113 136.553Z" fill="#0033CC"/>
<path fill-rule="evenodd" clip-rule="evenodd" d="M161.322 26.7905C163.401 26.4929 164.971 27.7225 165.718 29.4555L165.757 29.5489C165.997 30.1386 166.264 30.7122 166.551 31.2761C171.753 28.8432 179.177 29.4683 182.469 34.3954C184.818 37.9143 183.385 42.0906 182.499 45.8222L181.918 48.2809C183.042 48.9627 183.889 50.1836 183.85 51.4479L183.845 51.5452L183.608 54.9739C184.359 54.2489 185.045 53.4594 185.657 52.6183C186.079 51.8804 186.535 51.1553 187.026 50.4528C189.909 46.3184 196.382 49.9115 194.002 54.3391C193.546 55.193 193.032 56.0019 192.481 56.7817C191.859 57.9321 191.349 59.1148 190.957 60.3296C192.082 60.7969 192.948 61.8345 193.039 63.4006C193.252 67.0581 191.237 70.1097 188.033 72.0271C187.09 72.591 186.116 72.7006 185.234 72.4911C185.079 72.6909 184.923 72.8907 184.774 73.0937C186.052 74.083 187.205 75.2108 188.195 76.4611C191.177 76.0358 194.175 75.836 197.173 75.8295C200.837 74.1184 205.225 74.1539 209.163 74.7951C211.698 75.2076 214.132 76.01 216.627 76.5868C219.257 77.1926 221.927 77.2152 224.587 77.6277C227.941 78.1465 230.881 79.6224 232.73 81.978C234.762 82.036 236.898 82.8287 238.67 83.905C242.793 86.412 246.894 88.9545 251.008 91.4777C252.586 92.4464 253.177 93.9928 252.886 95.7177L252.867 95.828L252.728 96.5434L253.054 96.9837C254.313 98.6785 255.682 100.454 256.497 102.324C258.005 104.396 259.367 106.568 260.574 108.808C262.2 111.818 263.542 115.008 264.451 118.282C264.677 119.11 264.904 119.945 265.053 120.789C265.266 121.981 264.938 122.906 264.759 124.05C264.535 125.5 264.454 126.97 264.218 128.423C264.059 129.386 263.2 129.86 262.301 129.886C262.639 132.338 262.882 134.807 263.116 137.256C263.444 140.755 263.667 144.264 263.859 147.774C264.853 149.15 266.885 150.239 268.352 150.616C270.383 151.135 272.513 150.571 274.433 149.91C275.64 149.495 276.63 150.941 276.042 151.908C274.193 154.944 270.238 154.931 267.243 153.587C265.975 153.02 264.863 152.198 264.039 151.128C264.089 152.147 264.143 153.165 264.197 154.186L264.248 155.112C264.857 165.917 266.171 177.094 264.042 187.793C260.354 206.325 244.266 220.436 224.614 221.532C214.302 222.107 205.714 219.203 201.444 217.584C197.173 215.964 198.833 212.661 201.797 213.605C206.904 215.232 216.286 217.655 224.682 216.608C244.47 214.142 261.25 204.714 259.526 164.105C259.281 158.346 258.529 152.585 258.366 146.826C258.211 141.197 258.268 135.564 258.008 129.938L257.921 128.018C257.82 125.775 257.711 123.521 257.535 121.276C257.322 120.406 257.146 119.523 256.886 118.669C256.179 116.345 255.257 114.086 254.111 111.931C253.857 112.114 253.573 112.246 253.266 112.298C250.93 112.697 248.739 112.585 246.552 111.657C245.531 111.228 244.632 110.658 243.794 109.952C243.395 109.62 243.128 109.298 242.919 108.963C241.861 108.979 240.802 108.676 240.14 107.951C239.384 107.124 239.259 106.271 239.555 105.481L239.586 105.402L239.511 105.376C238.619 107.577 236.841 109.514 234.89 110.822C231.808 112.897 227.951 113.497 224.253 113.551C220.169 113.609 215.863 113.01 211.833 112.398C210.769 112.237 209.711 112.053 208.673 111.805C208.632 111.844 208.592 111.889 208.548 111.927C205.09 115.082 200.226 115.894 195.838 114.093C193.303 113.052 191.177 111.376 189.297 109.456C189.27 110.461 189.216 111.466 189.125 112.462L189.087 112.858C188.9 114.712 188.54 116.679 187.07 118.018C184.693 120.186 181.245 119.316 178.504 117.905C178.507 117.973 178.507 118.044 178.507 118.114C179.248 120.512 179.991 122.913 180.735 125.313L180.895 125.825C181.436 127.529 182.029 129.236 182.192 131.02C182.503 134.43 180.123 137.797 176.148 136.653C174.063 136.055 172.392 134.384 170.789 133.045L169.779 132.213C172.392 140.356 174.204 148.789 174.373 157.286C174.383 157.747 173.968 158.095 173.508 158.111C172.433 158.153 171.277 157.95 170.195 157.541C170.134 157.538 170.073 157.535 170.009 157.525C168.164 157.27 166.45 156.635 164.939 155.698C165.287 156.751 165.442 157.883 165.351 159.065C165.328 159.352 164.858 159.452 164.79 159.136C163.918 155.047 158.898 151.956 154.571 152.74C149.927 153.581 146.506 157.389 145.668 161.724C144.769 166.38 146.489 171.765 149.677 175.358C151.144 177.014 153.074 178.397 155.366 178.745C156.414 178.902 157.502 178.848 158.52 178.564C158.952 178.442 159.358 178.271 159.77 178.11C160.372 177.878 161.075 177.842 161.643 177.597C162.931 177.046 164.226 178.177 163.573 179.437C163.005 180.536 162.495 181.277 161.552 181.845C162.316 182.734 163.009 183.971 163.266 184.303C164.577 185.992 165.909 187.587 167.403 189.131C168.924 190.697 170.584 192.127 172.338 193.452L173.076 194.007C174.766 195.285 176.237 196.469 177.429 198.302C178.369 199.748 177.152 201.711 175.391 201.688C169.881 201.614 165.875 197 163.022 192.968C162.617 192.392 162.235 191.783 161.88 191.157C161.751 191.354 161.609 191.538 161.45 191.705L161.765 192.511C162.698 194.883 158.679 196.433 157.512 194.219C156.664 192.614 155.68 191.087 154.585 189.643C153.939 189.556 153.307 189.182 152.956 188.699C152.067 187.471 151.07 186.23 150.228 184.922C149.761 184.5 149.281 184.094 148.791 183.697C148.649 183.817 148.504 183.936 148.365 184.062C147.75 185.399 146.99 186.62 146.046 187.771L145.844 188.016C144.037 190.187 141.684 192.408 138.772 192.939C137.883 193.101 137.028 192.047 137.815 191.373C139.854 189.627 142.264 188.438 144.143 186.488C145.069 185.528 145.919 184.47 146.651 183.361L146.817 183.105C146.939 182.914 147.064 182.724 147.192 182.531C146.344 181.98 145.495 181.426 144.647 180.871C142.311 182.774 139.27 183.644 136.686 185.22L136.43 185.38C134.094 186.868 131.633 183.575 133.506 181.767C135.57 179.782 137.293 177.414 139.122 175.208C138.262 173.698 137.855 171.912 137.703 170.107C137.642 169.597 137.595 169.086 137.548 168.575C136.237 168.594 134.919 168.165 133.803 167.427L133.381 167.141C132.025 167.553 130.602 167.753 129.24 167.717C126.035 167.627 124.724 164.137 126.728 161.93C128.773 159.674 132.353 159.181 135.189 160.277C135.28 160.232 135.375 160.183 135.466 160.135C135.331 159.542 135.361 159.004 135.515 158.532L135.47 158.244C134.847 157.331 134.437 156.29 134.281 155.19C134.158 154.318 134.183 153.454 134.395 152.593C134.465 152.307 134.611 152.01 134.723 151.711C134.493 151.156 134.357 150.583 134.315 150.006C134.251 149.933 134.186 149.858 134.126 149.776C132.718 147.893 133.003 145.623 134.342 144.099C134.348 144.002 134.357 143.905 134.371 143.809C134.293 143.641 134.221 143.471 134.155 143.299C132.847 142.041 131.886 140.526 132.065 138.65C132.17 137.546 132.646 136.552 133.367 135.809C133.239 135.449 133.227 135.032 133.382 134.684C132.232 131.769 132.377 128.258 133.205 124.998C133.022 124.501 132.928 123.963 132.948 123.393C133.042 120.973 135.24 118.749 137.842 118.778C138.156 118.781 138.449 118.82 138.731 118.877L138.735 118.819C138.835 118.093 139.044 117.422 139.35 116.819C139.2 116.767 139.06 116.693 138.938 116.594C137.271 117.442 135.506 118.091 133.655 118.532C132.295 118.857 130.901 117.383 131.747 116.165C132.139 115.601 132.572 115.093 133.039 114.63C132.376 114.634 131.702 114.676 131.021 114.76C129.797 114.911 128.432 114.115 127.637 113.039C126.65 113.954 125.66 114.866 124.67 115.778C122.161 118.095 118.372 116.39 117.977 113.336C117.23 113.145 116.533 112.823 115.921 112.362C111.966 113.999 107.711 114.898 103.36 115.069C100.237 115.192 98.4115 111.724 99.8718 109.275C100.852 107.632 102.069 106.156 103.472 104.873C101.295 105.508 99.047 105.966 96.7518 106.259C95.5112 106.417 93.7568 105.437 93.2599 104.351C91.3602 100.175 91.5225 95.8216 93.7095 91.7581C93.794 91.5969 93.8887 91.4423 93.9799 91.2876C94.2064 90.7494 94.4532 90.2177 94.7202 89.6957C92.0295 87.0211 91.7963 83.0446 93.2464 79.7158C92.665 78.8167 92.4419 77.734 92.8374 76.7544C93.963 73.9348 95.5856 71.331 97.634 69.0946C97.438 68.7337 97.2656 68.3503 97.1202 67.9378C95.9675 64.6026 97.3028 60.5777 99.9968 58.2544C101.69 56.7914 103.637 55.9149 105.716 55.3542C106.592 53.8783 107.717 52.5474 109.029 51.426C109.08 51.3197 109.13 51.2133 109.188 51.107C111.23 47.4399 114.948 45.4742 118.933 45.0198C119.089 43.5858 120.103 42.2163 121.577 41.7716C121.982 40.5309 122.587 39.3451 123.419 38.2688C124.727 36.5738 126.901 35.7746 128.949 36.8864C130.071 37.4954 131.146 38.1947 132.153 38.9681C132.606 38.7658 133.119 38.6349 133.698 38.5932L133.844 38.5846L137.177 38.4235C138.573 37.8338 139.965 37.2151 141.361 36.6125C142.2 35.9519 143.136 35.4008 144.157 34.9916C145.313 34.5308 146.496 34.2697 147.682 34.1827C148.646 33.8831 149.616 33.6188 150.603 33.4126C152.922 32.9292 155.349 32.6585 157.756 32.6811C157.805 32.0872 157.829 31.4863 157.825 30.8782L157.82 30.5736C157.766 28.624 159.399 27.0676 161.322 26.7905ZM158.986 182.773C158.655 182.84 158.32 182.895 157.986 182.934C158.087 183.172 158.188 183.411 158.286 183.649C158.557 183.794 158.831 183.933 159.104 184.062C159.023 183.623 158.976 183.182 158.986 182.773ZM141.619 177.853L141.395 178.247C141.358 178.312 141.322 178.376 141.287 178.438C141.764 178.403 142.244 178.413 142.717 178.464L142.715 178.416C142.655 178.397 142.594 178.379 142.536 178.351C142.209 178.202 141.906 178.034 141.619 177.853ZM151.005 159.855C153.996 160.021 156.53 160.458 159.249 161.705L159.483 161.814C161.886 162.951 165.862 165.052 165.527 168.065C165.432 168.923 164.78 169.825 163.752 169.757C160.937 169.574 159.328 166.867 157.421 165.178C155.498 163.477 153.135 161.727 150.806 160.557C150.477 160.393 150.606 159.871 150.965 159.854L151.005 159.855ZM137.444 120.157C136.727 120.18 136.967 120.844 137.335 120.29C137.366 120.244 137.403 120.199 137.444 120.157ZM176.126 75.8418C169.339 76.0119 162.509 79.8321 157.424 83.6936C153.001 87.053 149.182 91.0488 145.8 95.3556C144.93 97.5005 144.183 99.6901 143.552 101.896C143.136 103.352 142.876 104.825 142.528 106.294L142.419 106.745C142.146 107.232 141.943 107.757 141.795 108.298C142.411 108.887 143.21 109.309 144.091 109.509C144.374 109.574 144.61 109.713 144.796 109.898C145.505 108.771 146.124 107.581 146.484 106.32L146.497 106.262C147.859 104.135 149.338 102.075 150.924 100.085C155.298 94.5906 160.115 89.5829 165.906 85.4163C170.297 82.2583 175.205 79.7835 180.424 78.1755C179.146 77.193 177.696 76.4157 176.126 75.8418Z" fill="white"/>
<path fill-rule="evenodd" clip-rule="evenodd" d="M248.16 178.468C248.241 178.224 248.597 178.225 248.679 178.468C249.422 180.676 249.858 182.838 250.968 184.914C251.242 185.183 251.438 185.522 251.544 185.887C252.062 186.708 252.639 187.487 253.285 188.225C254.098 189.153 254.689 190.025 254.258 191.291C254.046 191.916 253.498 192.315 252.807 192.345C250.91 192.427 249.829 190.702 249.158 188.904C244.464 190.39 239.294 191.231 234.374 190.862C230.375 190.561 226.018 189.606 222.437 187.659C222.458 188.394 222.487 189.13 222.514 189.866C222.564 191.228 222.949 192.719 222.8 194.056C222.653 195.383 221.862 196.41 220.43 196.615C219.197 196.792 217.671 196.007 217.431 194.748C217.153 193.287 217.668 192.267 218.093 190.888C218.467 189.669 218.762 188.424 219.085 187.192C219.411 185.948 219.677 184.693 219.919 183.433C220.096 182.511 219.968 181.471 220.311 180.602C220.338 180.534 220.408 180.485 220.487 180.507C222.31 181.006 222.414 183.805 222.406 185.307L222.406 185.381C222.403 185.688 222.406 185.994 222.41 186.299L223.106 186.445C226.932 187.234 230.647 187.833 234.669 187.616C239.388 187.361 243.537 185.717 248.014 184.59C247.642 182.562 247.528 180.351 248.16 178.468ZM232.381 138.52C234.475 137.837 236.738 137.514 238.94 137.617C243.66 137.839 248.156 139.891 251.25 143.311C254.172 146.539 255.76 150.587 255.739 154.858C255.717 159.245 254.508 164.186 252.232 168.027C247.449 176.096 236.278 176.152 228.25 172.935C219.682 169.502 216.196 160.843 218.26 152.472C219.812 146.177 225.104 138.623 232.381 138.52ZM246.339 144.752C243.811 142.818 240.628 141.949 237.412 142.168C235.814 142.278 234.19 142.678 232.74 143.328C231.969 143.673 231.28 144.155 230.52 144.515C229.843 144.835 229.111 145.022 228.412 145.292L228.152 145.397C227.005 145.886 225.85 145.187 225.793 144.168C223.298 147.505 222.114 152.03 222.133 156.045C222.148 159.001 222.886 162.072 224.666 164.533C226.645 167.269 229.928 168.712 233.22 169.478C236.373 170.212 239.811 170.467 242.972 169.633C246.252 168.768 248.371 166.395 249.577 163.436C252.194 157.019 252.41 149.398 246.339 144.752ZM235.074 152.71C236.505 150.847 239.073 150.748 240.487 152.71C241.377 153.945 241.246 155.135 241.175 156.556L241.162 156.875C241.12 158 241.125 159.184 240.683 160.223C240.116 161.558 239.013 162.413 237.451 162.236C236.531 162.131 235.76 161.608 235.314 160.886L235.298 160.894C234.671 159.702 234.51 158.492 234.404 157.19L234.331 156.235C234.242 154.98 234.238 153.798 235.074 152.71Z" fill="white"/>
</svg>
